<svg viewBox="0 0 103 26" xmlns:xlink="http://www.w3.org/1999/xlink" xmlns="http://www.w3.org/2000/svg" width="103" height="26" fill="none"><path fill="#fff" d="M32.752 4.2h2.856v7.104h.912L42.736 4.2h3.552l-7.2 8.28 7.32 8.52h-3.696l-6.216-7.32h-.888V21h-2.856V4.2ZM47.568 9h2.448l.216 1.488c.32-.4.696-.728 1.128-.984a4.028 4.028 0 0 1 1.392-.552A3.558 3.558 0 0 1 54.288 9v2.496a2.695 2.695 0 0 0-1.344-.096c-.464.064-.896.24-1.296.528-.4.272-.728.664-.984 1.176-.256.496-.384 1.112-.384 1.848V21h-2.712V9ZM61.06 21.168c-1.153 0-2.185-.248-3.097-.744a5.483 5.483 0 0 1-2.136-2.136c-.512-.928-.768-2.016-.768-3.264 0-1.264.264-2.36.792-3.288A5.396 5.396 0 0 1 58.035 9.6c.928-.512 1.96-.768 3.096-.768 1.152 0 2.184.256 3.096.768a5.556 5.556 0 0 1 2.208 2.136c.544.912.816 1.992.816 3.24 0 1.264-.28 2.36-.84 3.288a5.68 5.68 0 0 1-2.232 2.16c-.928.496-1.968.744-3.12.744Zm-.025-2.424c.56 0 1.088-.136 1.584-.408.512-.272.928-.68 1.248-1.224.32-.56.48-1.272.48-2.136 0-.832-.152-1.52-.456-2.064-.304-.56-.704-.976-1.2-1.248a3.291 3.291 0 0 0-1.608-.408c-.56 0-1.08.136-1.56.408-.464.272-.84.688-1.128 1.248-.288.544-.432 1.248-.432 2.112 0 .832.136 1.528.408 2.088.288.544.664.952 1.128 1.224.464.272.976.408 1.536.408ZM69.073 9h2.448l.192 1.128c.4-.4.872-.712 1.416-.936a4.35 4.35 0 0 1 1.776-.36c.8 0 1.52.168 2.16.504.64.32 1.16.792 1.56 1.416a3.902 3.902 0 0 1 1.704-1.416 5.437 5.437 0 0 1 2.328-.504c.944 0 1.76.2 2.448.6.704.384 1.248.96 1.632 1.728.384.752.576 1.696.576 2.832V21h-2.736v-6.648c0-1.008-.216-1.768-.648-2.28-.416-.512-1.032-.768-1.848-.768-.832 0-1.48.264-1.944.792-.464.512-.696 1.28-.696 2.304V21h-2.712v-6.648c0-1.008-.2-1.768-.6-2.28-.384-.512-.984-.768-1.8-.768-.832 0-1.464.264-1.896.792-.432.512-.648 1.272-.648 2.28V21h-2.712V9ZM96.74 21l-.24-1.464c-.385.512-.84.904-1.369 1.176-.528.272-1.232.408-2.112.408-.832 0-1.552-.136-2.16-.408-.608-.288-1.08-.68-1.416-1.176-.32-.512-.48-1.104-.48-1.776 0-1.008.368-1.848 1.104-2.52.752-.688 1.848-1.112 3.288-1.272l3.144-.336v-.936c0-.384-.168-.728-.504-1.032-.336-.32-.872-.48-1.608-.48-.64 0-1.2.16-1.68.48-.464.304-.776.768-.936 1.392l-2.352-.864c.304-1.056.904-1.88 1.8-2.472.912-.592 2.016-.888 3.312-.888 1.568 0 2.744.392 3.528 1.176.784.784 1.176 1.784 1.176 3V21H96.74Zm-.24-5.28-2.88.36c-.609.08-1.065.256-1.369.528a1.229 1.229 0 0 0-.456.984c0 .368.144.688.432.96.304.256.712.384 1.224.384.656 0 1.208-.12 1.656-.36a2.3 2.3 0 0 0 1.032-1.032c.24-.448.36-1 .36-1.656v-.168ZM14.148 8.58h-3.284a3.283 3.283 0 0 1-3.284 3.285v3.284a6.574 6.574 0 0 0 6.568-6.568Zm-.002 13.136h3.284a3.283 3.283 0 0 1 3.284-3.284v-3.284a6.566 6.566 0 0 0-6.567 6.568Z"/><path fill="#fff" d="M24.001 18.431v3.284A3.283 3.283 0 0 0 20.717 25h-3.283A6.566 6.566 0 0 1 24 18.431ZM7.568 24.999H4.284A3.283 3.283 0 0 0 1 21.715v-3.284A6.566 6.566 0 0 1 7.568 25ZM1 11.864v3.284a3.283 3.283 0 0 1 3.284 3.284h3.284A6.566 6.566 0 0 0 1 11.864Z"/><path fill="#fff" d="M7.566 18.431v3.284A3.283 3.283 0 0 1 10.85 25h3.284c.013-3.629-2.939-6.568-6.568-6.568Zm-3.281-6.566V8.582A3.283 3.283 0 0 0 7.57 5.298h3.284a6.574 6.574 0 0 1-6.568 6.567Z"/><path fill="#fff" d="M1 8.58V5.296a3.283 3.283 0 0 0 3.284-3.284h3.284A6.574 6.574 0 0 1 1 8.58ZM17.434 2h3.284A3.283 3.283 0 0 0 24 5.284v3.284c-3.629.012-6.567-2.94-6.567-6.568Zm6.567 13.149v-3.284a3.283 3.283 0 0 1-3.284-3.284h-3.283A6.566 6.566 0 0 0 24 15.149Zm-6.57-6.569V5.296a3.283 3.283 0 0 1-3.284-3.284h-3.284c-.012 3.617 2.94 6.568 6.568 6.568Zm0 3.284v3.284a3.283 3.283 0 0 0-3.284 3.284h-3.284c-.012-3.63 2.94-6.568 6.568-6.568Z"/></svg>