<svg viewBox="0 0 107 32" xmlns:xlink="http://www.w3.org/1999/xlink" xmlns="http://www.w3.org/2000/svg" width="107" height="32" fill="none"><path fill="#fff" d="m46.202 8.336-8.664 12.288h8.664V23H34.178v-2.136l8.64-12.288h-8.64V6.2h12.024v2.136ZM56.465 11h2.856l-7.056 16.8h-2.688l2.16-5.136L47.057 11h3l3.168 8.496L56.465 11Zm6.55 10.224.312-.072V27.8h-2.712V11h2.448l.192 1.488c.4-.464.92-.856 1.56-1.176.64-.32 1.416-.48 2.328-.48 1.04 0 1.96.256 2.76.768.816.512 1.448 1.232 1.896 2.16.464.912.696 1.992.696 3.24 0 1.232-.232 2.312-.696 3.24-.448.928-1.072 1.648-1.872 2.16-.8.512-1.728.768-2.784.768-.96 0-1.792-.184-2.496-.552-.704-.384-1.248-.848-1.632-1.392ZM69.59 17c0-1.104-.296-2-.888-2.688-.576-.688-1.32-1.032-2.232-1.032-.576 0-1.104.144-1.584.432-.464.288-.84.704-1.128 1.248-.288.544-.432 1.224-.432 2.04 0 .8.144 1.48.432 2.04.288.544.664.96 1.128 1.248.48.288 1.008.432 1.584.432.912 0 1.656-.344 2.232-1.032.592-.688.888-1.584.888-2.688Zm4.719-11.28h2.712v6.384a4.155 4.155 0 0 1 1.416-.912c.56-.24 1.184-.36 1.872-.36.896 0 1.68.2 2.352.6.688.384 1.216.96 1.584 1.728.384.752.576 1.696.576 2.832V23h-2.808v-6.648c0-1.008-.208-1.768-.624-2.28-.4-.512-1.008-.768-1.824-.768-.832 0-1.464.264-1.896.792-.432.528-.648 1.296-.648 2.304V23h-2.712V5.72Zm18.203 17.448c-1.2 0-2.256-.264-3.168-.792a5.613 5.613 0 0 1-2.112-2.208c-.496-.944-.744-2.032-.744-3.264 0-1.168.248-2.208.744-3.12a5.582 5.582 0 0 1 2.064-2.16c.88-.528 1.88-.792 3-.792 1.136 0 2.136.248 3 .744a5.172 5.172 0 0 1 2.016 2.088c.496.88.744 1.904.744 3.072 0 .192-.008.4-.024.624-.016.208-.04.432-.072.672h-8.544c.08.56.256 1.048.528 1.464.288.4.648.712 1.08.936.432.224.928.336 1.488.336.672 0 1.272-.136 1.8-.408.544-.272.92-.632 1.128-1.08l2.376.792a5.43 5.43 0 0 1-2.136 2.28c-.944.544-2 .816-3.168.816Zm2.592-7.344a2.601 2.601 0 0 0-.408-1.344 2.696 2.696 0 0 0-1.008-.936c-.416-.24-.88-.36-1.392-.36-.448 0-.872.112-1.272.336-.4.224-.744.536-1.032.936-.272.384-.448.84-.528 1.368h5.64ZM99.892 11h2.448l.216 1.488c.32-.4.696-.728 1.128-.984a4.028 4.028 0 0 1 1.392-.552 3.558 3.558 0 0 1 1.536.048v2.496a2.695 2.695 0 0 0-1.344-.096c-.464.064-.896.24-1.296.528-.4.272-.728.664-.984 1.176-.256.496-.384 1.112-.384 1.848V23h-2.712V11Z"/><path fill="#fff" fill-rule="evenodd" d="M.348 4.666a.87.87 0 0 1 .804-.537h22c.48 0 .87.39.87.87v11a.87.87 0 0 1-.87.871h-8.898l9.514 9.514a.87.87 0 0 1-.616 1.486h-22a.87.87 0 0 1-.87-.87V16a.87.87 0 0 1 .87-.871h8.898L.536 5.615a.87.87 0 0 1-.188-.949ZM12.513 15.13h9.768V5.87H3.254l9.259 9.259Zm-.722 1.741H2.023v9.259H21.05l-9.26-9.26Z" clip-rule="evenodd"/></svg>