<svg viewBox="0 0 88 30" xmlns:xlink="http://www.w3.org/1999/xlink" xmlns="http://www.w3.org/2000/svg" width="88" height="30" fill="none"><path fill="#fff" fill-rule="evenodd" d="M7.5 19A2.5 2.5 0 0 1 5 16.5V5H0v11.5A7.5 7.5 0 0 0 7.5 24H13v-5H7.5Zm15-9a4.501 4.501 0 0 0-1.722 8.657 4.501 4.501 0 0 0 4.904-7.339A4.5 4.5 0 0 0 22.5 10ZM13 14.5a9.5 9.5 0 1 1 19 0 9.5 9.5 0 0 1-19 0ZM76.5 10a4.5 4.5 0 1 0 0 9 4.5 4.5 0 0 0 0-9ZM67 14.5a9.5 9.5 0 1 1 19 0 9.5 9.5 0 0 1-19 0ZM42.5 5a9.5 9.5 0 0 0 0 19h14c.984 0 1.934-.15 2.827-.428L62 25l2.884-5.402A9.503 9.503 0 0 0 66 15.131V14.5A9.5 9.5 0 0 0 56.5 5h-14ZM61 14.5a4.5 4.5 0 0 0-4.5-4.5h-14a4.501 4.501 0 0 0-1.722 8.657A4.501 4.501 0 0 0 42.5 19h14a4.5 4.5 0 0 0 4.5-4.465V14.5Z" clip-rule="evenodd"/></svg>