<svg viewBox="0 0 108 32" xmlns:xlink="http://www.w3.org/1999/xlink" xmlns="http://www.w3.org/2000/svg" width="108" height="32" fill="none"><path fill="#fff" d="M91.895 24.832c-.208 0-.376-.096-.504-.288-.128-.192-.192-.44-.192-.744 0-.688.288-1.032.864-1.032.704 0 1.328-.288 1.872-.864.56-.592 1-1.392 1.32-2.4.336-1.008.504-2.128.504-3.36 0-.288-.016-.552-.048-.792a3.95 3.95 0 0 0-.12-.6c-.144-.144-.304-.376-.48-.696a9.548 9.548 0 0 1-.432-1.008c-.112-.368-.168-.664-.168-.888.192-.304.496-.536.912-.696a2.617 2.617 0 0 1 1.416-.144c.304.56.552 1.264.744 2.112.48-.016 1.128-.12 1.944-.312.512-.112.92-.184 1.224-.216a5.64 5.64 0 0 1 .816-.072c.864 0 1.544.328 2.04.984.496.64.744 1.512.744 2.616v3.864c0 .88.112 1.512.336 1.896.24.384.616.576 1.128.576.176 0 .368-.04.576-.12.208-.08.424-.2.648-.36.272.128.496.352.672.672.176.304.256.608.24.912-.256.288-.584.52-.984.696-.4.176-.832.264-1.296.264h-.024c-2.32 0-3.48-1.424-3.48-4.272v-3.72c0-.72-.08-1.224-.24-1.512-.16-.288-.448-.432-.864-.432-.144 0-.304.016-.48.048s-.488.096-.936.192c-.784.16-1.376.256-1.776.288.016.256.024.512.024.768 0 1.728-.248 3.24-.744 4.536-.496 1.296-1.2 2.304-2.112 3.024-.896.72-1.944 1.08-3.144 1.08Z"/><path fill="#fff" d="M77.48 22.768c.543 0 1.071-.264 1.583-.792.528-.544.968-1.272 1.32-2.184a9.429 9.429 0 0 1-.024-.672c0-1.216.24-2.296.72-3.24.48-.944 1.128-1.688 1.944-2.232.832-.544 1.776-.816 2.832-.816.56 0 1.112.112 1.656.336.544.208 1 .496 1.368.864v-.984a3.646 3.646 0 0 1 1.104-.168c.384 0 .744.056 1.08.168v7.032c0 .848.128 1.512.384 1.992.272.464.72.696 1.344.696.272 0 .456.112.552.336.096.224.144.464.144.72 0 .256-.072.488-.216.696-.128.208-.344.312-.648.312-1.568 0-2.616-.704-3.144-2.112a5.125 5.125 0 0 1-1.752 1.56c-.688.368-1.456.552-2.304.552-.928 0-1.752-.2-2.472-.6a5.029 5.029 0 0 1-1.728-1.704c-.992 1.536-2.296 2.304-3.912 2.304-.208 0-.376-.096-.504-.288-.128-.192-.192-.44-.192-.744 0-.688.288-1.032.864-1.032Zm5.111-3.648c0 1.136.256 2.032.768 2.688.528.64 1.248.96 2.16.96 1.008 0 1.816-.344 2.424-1.032.624-.688.936-1.592.936-2.712v-2.688a3.491 3.491 0 0 0-1.224-1.032 3.155 3.155 0 0 0-1.536-.408c-.688 0-1.296.184-1.824.552-.528.368-.944.872-1.248 1.512-.304.624-.456 1.344-.456 2.16Z"/><path fill="#fff" d="M58.718 24.832c-.208 0-.376-.096-.504-.288-.128-.192-.192-.44-.192-.744 0-.688.288-1.032.864-1.032.512 0 .968-.256 1.368-.768.416-.528.776-1.4 1.08-2.616l.72-2.808c.672-2.496 1.952-3.744 3.84-3.744.72 0 1.328.216 1.824.648.496.416.84.984 1.032 1.704.448-.752 1.024-1.328 1.728-1.728a4.536 4.536 0 0 1 2.352-.624c1.248 0 2.208.408 2.88 1.224.688.816 1.032 1.96 1.032 3.432v2.808c0 .88.112 1.512.336 1.896.24.384.616.576 1.128.576.224 0 .392.096.504.288.128.192.192.448.192.768 0 .256-.072.488-.216.696-.128.208-.344.312-.648.312-2.32 0-3.48-1.424-3.48-4.272v-3.072c0-1.728-.68-2.592-2.04-2.592-.704 0-1.328.28-1.872.84-.528.56-.944 1.336-1.248 2.328-.288.992-.432 2.144-.432 3.456v2.976c-.16.048-.336.088-.528.12a3.394 3.394 0 0 1-1.632-.12V16.84c0-.624-.08-1.104-.24-1.44-.16-.336-.448-.504-.864-.504-.336 0-.624.152-.864.456-.24.304-.448.792-.624 1.464l-.888 3.456c-.416 1.584-.992 2.744-1.728 3.48-.736.72-1.696 1.08-2.88 1.08Z"/><path fill="#fff" d="M45.322 24.592a2.655 2.655 0 0 1-.96-.576 1.992 1.992 0 0 1-.504-.96c.288-.272.624-.616 1.008-1.032.384-.416.76-.912 1.128-1.488a9.1 9.1 0 0 0 .912-1.992c.256-.736.384-1.56.384-2.472v-2.904a3.646 3.646 0 0 1 2.184 0v5.544c0 1.392.224 2.408.672 3.048.448.624 1.152.936 2.112.936 2.288 0 3.432-1.672 3.432-5.016v-4.512c.128-.048.288-.088.48-.12s.392-.048.6-.048c.384 0 .752.056 1.104.168v6.912c0 .848.128 1.512.384 1.992.272.464.72.696 1.344.696.272 0 .456.112.552.336.096.224.144.464.144.72 0 .256-.072.488-.216.696-.128.208-.344.312-.648.312-1.536 0-2.576-.672-3.12-2.016a4.497 4.497 0 0 1-1.728 1.512c-.704.336-1.536.504-2.496.504-2.192 0-3.64-1-4.344-3a11.363 11.363 0 0 1-1.2 1.608c-.416.48-.824.864-1.224 1.152Zm-12.642-.096V7.168A3.94 3.94 0 0 1 33.784 7c.416 0 .792.056 1.128.168v15.24h8.472c.08.128.128.328.144.6.032.256.04.528.024.816a1.594 1.594 0 0 1-.168.672H32.68ZM18.821 7.556H4.178L6.733 5h9.532l2.556 2.556ZM23 11.734v.933H0v-.933l1.623-1.623h19.754L23 11.734Zm0 3.488H0v2.556h23v-2.556Zm0 5.112v.933l-1.623 1.623H1.623L0 21.267v-.933h23Zm-4.179 5.111L16.265 28H6.733l-2.555-2.555H18.82Z"/></svg>