<svg viewBox="0 0 7 10" xmlns:xlink="http://www.w3.org/1999/xlink" xmlns="http://www.w3.org/2000/svg" width="7" height="10" fill="none"><g clip-path="url(#a)"><path fill="#1E1E1E" d="M3.263 5.188c-.488 0-.916-.088-1.284-.264a2.084 2.084 0 0 1-.84-.756 2.104 2.104 0 0 1-.288-1.104c0-.432.104-.808.312-1.128.208-.328.492-.58.852-.756.36-.184.776-.276 1.248-.276.128 0 .256.008.384.024s.248.04.36.072h2.46v1.008H5.291a1.923 1.923 0 0 1 .36 1.128c0 .4-.1.756-.3 1.068-.2.312-.48.556-.84.732-.36.168-.776.252-1.248.252Zm.024 4.308a3.77 3.77 0 0 1-1.5-.288 2.386 2.386 0 0 1-1.044-.852C.487 7.988.36 7.544.36 7.024V5.836h5.856v1.188c0 .52-.132.964-.396 1.332-.256.376-.604.66-1.044.852-.44.192-.936.288-1.488.288Zm0-1.056c.488 0 .884-.112 1.188-.336.304-.216.456-.536.456-.96v-.252h-3.3v.252c0 .424.152.744.456.96.312.224.712.336 1.2.336Zm-.036-4.284c.328 0 .588-.096.78-.288.2-.192.3-.452.3-.78s-.1-.58-.3-.756c-.192-.184-.452-.276-.78-.276-.32 0-.584.092-.792.276-.2.176-.3.428-.3.756s.1.588.3.78c.208.192.472.288.792.288Z"/></g><defs><clipPath id="a"><path fill="#fff" d="M0 0h7v10H0z"/></clipPath></defs></svg>