<svg xmlns:xlink="http://www.w3.org/1999/xlink" xmlns="http://www.w3.org/2000/svg" viewBox="0 0 110 19" id="svg9128400944" width="110"  height="19" ><path d="M 17.5 18.5 L 17.5 10 C 12.816 10 9 6.203 9 1.5 L 0.5 1.5 C 0.5 10.888 8.112 18.5 17.5 18.5 Z M 17.5 18.5 L 17.5 10 C 22.184 10 26 6.203 26 1.5 L 34.5 1.5 C 34.5 10.888 26.888 18.5 17.5 18.5 Z M 48.61 18.5 L 43.874 1.04 L 46.628 1.04 L 49.171 11.129 C 49.327 11.746 49.471 12.375 49.605 13.016 C 49.737 13.648 49.866 14.289 49.991 14.937 C 50.124 15.578 50.249 16.219 50.366 16.859 L 49.968 16.859 C 50.219 15.575 50.484 14.294 50.765 13.016 C 50.913 12.375 51.065 11.746 51.222 11.129 L 53.835 1.039 L 56.718 1.039 L 59.319 11.129 C 59.483 11.746 59.636 12.375 59.776 13.016 C 59.925 13.648 60.066 14.289 60.198 14.937 C 60.338 15.578 60.472 16.219 60.597 16.859 L 60.163 16.859 L 60.538 14.937 C 60.663 14.289 60.796 13.648 60.936 13.016 C 61.082 12.386 61.231 11.757 61.382 11.129 L 63.913 1.039 L 66.69 1.039 L 61.934 18.5 L 58.91 18.5 L 56.086 7.965 C 55.873 7.15 55.682 6.329 55.512 5.504 C 55.321 4.572 55.137 3.639 54.961 2.704 L 55.582 2.704 C 55.398 3.617 55.218 4.53 55.043 5.445 C 54.879 6.305 54.688 7.145 54.469 7.965 L 51.656 18.5 Z M 67.665 18.5 L 67.665 5.797 L 70.185 5.797 L 70.185 18.5 Z M 68.919 3.734 C 68.481 3.734 68.106 3.586 67.794 3.289 C 67.497 3.01 67.331 2.619 67.337 2.211 C 67.337 1.781 67.489 1.421 67.794 1.133 C 68.095 0.841 68.5 0.68 68.919 0.687 C 69.364 0.687 69.739 0.836 70.044 1.133 C 70.356 1.422 70.513 1.781 70.513 2.211 C 70.513 2.633 70.356 2.992 70.043 3.289 C 69.744 3.583 69.338 3.744 68.919 3.734 Z M 74.849 11.094 L 74.849 18.5 L 72.33 18.5 L 72.33 5.797 L 74.768 5.797 L 74.779 8.937 L 74.346 8.937 C 74.736 7.797 75.295 6.957 76.021 6.418 C 76.748 5.871 77.623 5.598 78.646 5.598 C 79.514 5.598 80.283 5.785 80.955 6.16 C 81.627 6.527 82.155 7.074 82.537 7.8 C 82.92 8.527 83.111 9.434 83.111 10.52 L 83.111 18.5 L 80.591 18.5 L 80.591 10.824 C 80.591 9.855 80.35 9.114 79.865 8.598 C 79.389 8.082 78.721 7.824 77.861 7.824 C 77.291 7.824 76.779 7.945 76.326 8.188 C 75.866 8.43 75.49 8.806 75.248 9.266 C 74.982 9.75 74.85 10.359 74.85 11.094 Z M 87.565 14.223 L 87.565 11.199 L 87.882 11.199 L 93.12 5.797 L 96.202 5.797 L 90.296 11.937 L 89.886 11.937 L 87.566 14.223 Z M 85.245 18.5 L 85.245 1.04 L 87.765 1.04 L 87.765 18.5 Z M 93.448 18.5 L 88.796 12.5 L 90.53 10.73 L 96.554 18.5 Z M 99.543 14.223 L 99.543 11.199 L 99.859 11.199 L 105.097 5.797 L 108.18 5.797 L 102.273 11.937 L 101.863 11.937 Z M 97.223 18.5 L 97.223 1.04 L 99.742 1.04 L 99.742 18.5 L 97.222 18.5 Z M 105.426 18.5 L 100.773 12.5 L 102.508 10.73 L 108.531 18.5 Z" fill="#5A6271"></path></svg>