<svg xmlns:xlink="http://www.w3.org/1999/xlink" xmlns="http://www.w3.org/2000/svg" viewBox="0 0 96 26" id="svg10572886068" width="96"  height="26" ><g transform="translate(0.758 0)"><path d="M 0 0.758 L 39 0.758 L 39 26.758 L 0 26.758 Z" fill="#000000" fill-opacity="0"></path><path d="M 13 26 L 16.947 26 L 15.797 24.85 C 15.492 24.546 15.079 24.375 14.649 24.375 L 12.999 24.375 C 6.719 24.375 1.626 19.282 1.626 13 C 1.626 6.718 6.718 1.625 13 1.625 L 26 1.625 C 32.282 1.625 37.375 6.718 37.375 13 C 37.375 19.282 32.282 24.375 26 24.375 L 21.137 24.375 C 20.49 24.375 19.87 24.118 19.413 23.661 L 18.067 22.315 C 17.305 21.553 16.272 21.125 15.194 21.125 L 13 21.125 C 8.513 21.125 4.875 17.487 4.875 13 C 4.875 8.513 8.513 4.875 13 4.875 L 26 4.875 C 30.487 4.875 34.125 8.513 34.125 13 C 34.125 17.487 30.487 21.125 26 21.125 L 22.877 21.125 C 22.231 21.125 21.611 20.868 21.154 20.411 L 19.808 19.065 C 19.046 18.303 18.013 17.875 16.935 17.875 L 13 17.875 C 10.308 17.875 8.125 15.692 8.125 13 C 8.125 10.308 10.308 8.125 13 8.125 L 26 8.125 C 28.673 8.125 30.847 10.278 30.874 12.951 C 30.901 15.624 28.77 17.82 26.098 17.874 L 26.098 17.875 L 24.908 17.875 C 24.262 17.875 23.642 17.618 23.185 17.161 L 21.839 15.815 C 21.218 15.193 20.411 14.79 19.541 14.665 L 19.5 14.625 L 13 14.625 C 12.103 14.625 11.375 13.897 11.375 13 C 11.375 12.103 12.103 11.375 13 11.375 L 26 11.375 C 26.897 11.375 27.625 12.103 27.625 13 C 27.625 13.897 26.897 14.625 26 14.625 L 22.75 14.625 L 23.899 15.775 C 24.204 16.079 24.617 16.25 25.048 16.25 L 26 16.25 C 27.795 16.25 29.25 14.795 29.25 13 C 29.25 11.205 27.795 9.75 26 9.75 L 13 9.75 C 11.205 9.75 9.75 11.205 9.75 13 C 9.75 14.795 11.205 16.25 13 16.25 L 18.966 16.25 C 19.613 16.25 20.233 16.507 20.69 16.964 L 22.036 18.31 C 22.798 19.072 23.831 19.5 24.908 19.5 L 26.406 19.5 L 26.406 19.488 C 29.915 19.275 32.618 16.31 32.508 12.797 C 32.398 9.283 29.515 6.494 26 6.5 L 13 6.5 C 9.41 6.5 6.5 9.41 6.5 13 C 6.5 16.59 9.41 19.5 13 19.5 L 16.935 19.5 C 17.581 19.5 18.201 19.757 18.658 20.214 L 20.005 21.56 C 20.767 22.322 21.8 22.75 22.877 22.75 L 26 22.75 C 31.385 22.75 35.75 18.385 35.75 13 C 35.75 7.615 31.385 3.25 26 3.25 L 13 3.25 C 7.615 3.25 3.25 7.615 3.25 13 C 3.25 18.385 7.615 22.75 13 22.75 L 15.194 22.75 C 15.841 22.75 16.461 23.007 16.918 23.464 L 18.264 24.81 C 19.026 25.572 20.059 26 21.137 26 L 26 26 C 33.18 26 39 20.18 39 13 C 39 5.82 33.18 0 26 0 L 13 0 C 5.82 0 0 5.82 0 13 C 0 20.18 5.82 26 13 26 Z" fill="#5A6271"></path></g><path d="M 50.504 21.5 L 50.504 4.04 L 56.984 4.04 C 58.204 4.04 59.23 4.234 60.066 4.625 C 60.902 5.015 61.536 5.555 61.965 6.242 C 62.395 6.93 62.609 7.722 62.609 8.622 C 62.609 9.316 62.484 9.914 62.234 10.414 C 61.984 10.914 61.637 11.324 61.191 11.644 C 60.754 11.964 60.246 12.207 59.668 12.371 L 59.668 12.465 C 60.298 12.526 60.904 12.735 61.438 13.075 C 61.992 13.418 62.438 13.891 62.773 14.492 C 63.117 15.094 63.289 15.824 63.289 16.684 C 63.289 17.629 63.066 18.464 62.621 19.191 C 62.184 19.911 61.516 20.477 60.617 20.891 C 59.719 21.297 58.586 21.5 57.219 21.5 Z M 53.129 19.262 L 57.008 19.262 C 58.227 19.262 59.137 19.027 59.738 18.559 C 60.34 18.082 60.641 17.437 60.641 16.625 C 60.641 16.047 60.5 15.539 60.219 15.102 C 59.937 14.656 59.531 14.309 59 14.059 C 58.477 13.809 57.848 13.684 57.113 13.684 L 53.13 13.684 L 53.13 19.262 Z M 53.129 11.574 L 56.856 11.574 C 57.488 11.574 58.039 11.464 58.508 11.246 C 58.955 11.046 59.334 10.721 59.598 10.309 C 59.863 9.902 59.996 9.426 59.996 8.879 C 59.996 8.105 59.73 7.48 59.199 7.004 C 58.668 6.52 57.899 6.277 56.891 6.277 L 53.129 6.277 Z M 67.403 4.04 L 67.403 21.5 L 64.883 21.5 L 64.883 4.04 Z M 74.951 21.782 C 73.748 21.782 72.693 21.505 71.787 20.95 C 70.889 20.395 70.189 19.626 69.689 18.642 C 69.189 17.649 68.939 16.501 68.939 15.196 C 68.939 13.884 69.189 12.731 69.689 11.739 C 70.189 10.739 70.889 9.962 71.787 9.407 C 72.693 8.853 73.748 8.575 74.951 8.575 C 76.154 8.575 77.205 8.853 78.103 9.407 C 79.01 9.962 79.713 10.739 80.213 11.739 C 80.713 12.731 80.963 13.884 80.963 15.196 C 80.963 16.501 80.713 17.649 80.213 18.642 C 79.713 19.626 79.01 20.396 78.103 20.95 C 77.205 21.505 76.154 21.782 74.951 21.782 Z M 74.951 19.626 C 75.701 19.626 76.33 19.435 76.838 19.052 C 77.353 18.669 77.744 18.146 78.01 17.482 C 78.275 16.81 78.408 16.048 78.408 15.196 C 78.408 14.329 78.275 13.563 78.01 12.899 C 77.744 12.228 77.353 11.7 76.838 11.317 C 76.33 10.927 75.701 10.731 74.951 10.731 C 74.209 10.731 73.58 10.923 73.064 11.306 C 72.549 11.689 72.158 12.216 71.893 12.888 C 71.635 13.56 71.506 14.329 71.506 15.196 C 71.506 16.048 71.635 16.81 71.892 17.481 C 72.158 18.146 72.549 18.669 73.064 19.051 C 73.58 19.435 74.209 19.626 74.951 19.626 Z M 88.862 21.747 C 88.214 21.747 87.643 21.646 87.152 21.442 C 86.69 21.254 86.268 20.98 85.909 20.634 C 85.576 20.311 85.288 19.945 85.054 19.544 L 84.948 19.544 L 84.948 21.5 L 82.488 21.5 L 82.488 4.04 L 85.007 4.04 L 85.007 10.742 L 85.089 10.742 C 85.299 10.367 85.573 10.019 85.909 9.699 C 86.265 9.358 86.682 9.087 87.139 8.902 C 87.632 8.699 88.209 8.598 88.874 8.598 C 89.936 8.598 90.87 8.868 91.674 9.406 C 92.487 9.937 93.124 10.696 93.584 11.68 C 94.046 12.664 94.276 13.824 94.276 15.16 C 94.276 16.496 94.046 17.66 93.585 18.652 C 93.132 19.637 92.499 20.398 91.686 20.937 C 90.882 21.477 89.94 21.747 88.862 21.747 Z M 88.335 19.591 C 89.038 19.591 89.64 19.411 90.14 19.051 C 90.647 18.685 91.034 18.169 91.3 17.505 C 91.573 16.841 91.71 16.055 91.71 15.149 C 91.71 14.251 91.573 13.474 91.3 12.817 C 91.034 12.161 90.647 11.653 90.14 11.294 C 89.64 10.927 89.038 10.744 88.335 10.744 C 87.616 10.744 86.999 10.927 86.483 11.294 C 85.968 11.661 85.573 12.177 85.3 12.841 C 85.034 13.497 84.901 14.267 84.901 15.149 C 84.901 16.04 85.038 16.817 85.311 17.481 C 85.585 18.146 85.979 18.665 86.495 19.041 C 87.011 19.407 87.624 19.591 88.335 19.591 Z" fill="#5A6271"></path></svg>