<svg xmlns:xlink="http://www.w3.org/1999/xlink" xmlns="http://www.w3.org/2000/svg" viewBox="0 0 90 26" id="svg12809330933" width="90"  height="26" ><path d="M 25.427 7.853 C 24.939 6.737 24.294 5.698 23.51 4.766 C 19.278 -0.422 11.792 -1.535 6.234 2.197 C 0.675 5.929 -1.128 13.279 2.072 19.16 C 2.946 20.77 4.151 22.176 5.607 23.286 C 6.541 24.012 7.574 24.603 8.674 25.04 C 10.216 25.672 11.866 25.998 13.533 25.999 C 20.697 25.984 26.497 20.174 26.5 13.01 C 26.503 11.235 26.137 9.479 25.427 7.853 Z M 13.523 2.647 C 15.02 2.647 16.499 2.974 17.855 3.606 C 17.525 3.749 17.177 3.849 16.82 3.903 C 14.411 4.251 12.519 6.144 12.172 8.553 C 12.018 9.908 10.933 10.969 9.575 11.093 C 7.166 11.441 5.274 13.334 4.927 15.743 C 4.869 16.368 4.603 16.955 4.17 17.41 C 2.653 14.202 2.885 10.44 4.784 7.443 C 6.683 4.445 9.984 2.628 13.533 2.628 Z M 5.598 19.721 C 5.713 19.615 5.828 19.52 5.943 19.404 C 6.795 18.577 7.342 17.486 7.495 16.308 C 7.557 15.646 7.853 15.027 8.329 14.563 C 8.788 14.086 9.405 13.793 10.064 13.739 C 12.473 13.391 14.365 11.498 14.712 9.089 C 14.754 8.397 15.051 7.745 15.546 7.259 C 16.015 6.791 16.638 6.508 17.299 6.462 C 18.376 6.314 19.381 5.835 20.175 5.092 C 21.078 5.842 21.843 6.743 22.436 7.757 C 22.4 7.806 22.358 7.851 22.312 7.891 C 21.855 8.373 21.238 8.672 20.577 8.735 C 18.166 9.078 16.271 10.973 15.929 13.384 C 15.79 14.745 14.712 15.819 13.351 15.954 C 10.936 16.3 9.034 18.19 8.674 20.603 C 8.622 21.071 8.461 21.521 8.204 21.916 C 7.221 21.332 6.341 20.59 5.598 19.721 Z M 13.523 23.421 C 12.551 23.422 11.583 23.287 10.648 23.019 C 10.968 22.423 11.176 21.772 11.262 21.101 C 11.4 19.744 12.473 18.671 13.83 18.532 C 16.243 18.188 18.14 16.294 18.488 13.882 C 18.627 12.525 19.699 11.452 21.056 11.313 C 21.94 11.198 22.782 10.869 23.51 10.355 C 24.328 13.459 23.663 16.767 21.709 19.314 C 19.756 21.86 16.733 23.359 13.523 23.373 Z M 42.309 21.5 L 42.309 14.54 L 35.875 4.04 L 38.922 4.04 L 42.238 9.582 C 42.565 10.128 42.878 10.683 43.176 11.246 C 43.473 11.793 43.773 12.398 44.078 13.062 L 43.211 13.062 C 43.508 12.391 43.801 11.782 44.09 11.234 C 44.387 10.688 44.7 10.137 45.027 9.582 L 48.297 4.039 L 51.332 4.039 L 44.934 14.539 L 44.934 21.5 Z M 53.759 21.734 C 52.931 21.734 52.189 21.59 51.532 21.301 C 50.899 21.031 50.358 20.583 49.974 20.011 C 49.591 19.434 49.399 18.727 49.399 17.891 C 49.399 17.164 49.536 16.571 49.809 16.109 C 50.086 15.653 50.473 15.274 50.935 15.008 C 51.436 14.725 51.977 14.519 52.54 14.398 C 53.134 14.258 53.743 14.152 54.368 14.082 C 55.142 13.98 55.758 13.902 56.22 13.848 C 56.688 13.785 57.028 13.688 57.24 13.555 C 57.45 13.422 57.556 13.207 57.556 12.91 L 57.556 12.816 C 57.556 12.379 57.458 12 57.263 11.68 C 57.062 11.347 56.763 11.085 56.407 10.93 C 56.04 10.75 55.587 10.66 55.047 10.66 C 54.501 10.66 54.024 10.746 53.618 10.918 C 53.245 11.071 52.912 11.308 52.645 11.609 C 52.408 11.88 52.243 12.207 52.165 12.559 L 49.739 12.277 C 49.896 11.488 50.216 10.82 50.7 10.273 C 51.208 9.716 51.843 9.289 52.552 9.031 C 53.302 8.742 54.134 8.598 55.048 8.598 C 55.704 8.598 56.333 8.68 56.934 8.844 C 57.512 8.996 58.056 9.254 58.54 9.605 C 59.012 9.953 59.391 10.412 59.642 10.941 C 59.915 11.488 60.052 12.148 60.052 12.921 L 60.052 21.5 L 57.59 21.5 L 57.59 19.73 L 57.508 19.73 C 57.318 20.09 57.068 20.415 56.769 20.691 C 56.457 20.996 56.055 21.246 55.562 21.441 C 55.07 21.637 54.469 21.734 53.758 21.734 Z M 54.286 19.719 C 55.005 19.719 55.606 19.586 56.091 19.32 C 56.575 19.047 56.938 18.691 57.181 18.254 C 57.431 17.809 57.556 17.332 57.556 16.824 L 57.556 15.277 C 57.47 15.356 57.313 15.43 57.086 15.5 C 56.868 15.563 56.606 15.621 56.302 15.676 C 56.005 15.73 55.696 15.781 55.376 15.828 C 55.063 15.875 54.771 15.918 54.497 15.957 C 54.037 16.02 53.607 16.125 53.208 16.273 C 52.81 16.414 52.489 16.617 52.247 16.883 C 52.013 17.148 51.895 17.496 51.895 17.926 C 51.895 18.309 51.997 18.633 52.2 18.898 C 52.403 19.164 52.68 19.368 53.032 19.508 C 53.392 19.648 53.81 19.718 54.286 19.718 Z M 64.716 4.039 L 64.716 21.5 L 62.197 21.5 L 62.197 4.04 L 64.717 4.04 Z M 69.382 4.039 L 69.382 21.5 L 66.862 21.5 L 66.862 4.04 L 69.382 4.04 Z M 76.929 21.781 C 75.726 21.781 74.672 21.504 73.766 20.949 C 72.867 20.394 72.168 19.625 71.668 18.641 C 71.168 17.648 70.918 16.5 70.918 15.195 C 70.918 13.883 71.168 12.73 71.668 11.738 C 72.168 10.738 72.867 9.961 73.765 9.406 C 74.672 8.852 75.726 8.574 76.93 8.574 C 78.133 8.574 79.183 8.852 80.082 9.406 C 80.988 9.961 81.692 10.738 82.192 11.738 C 82.692 12.73 82.942 13.883 82.942 15.195 C 82.942 16.5 82.692 17.648 82.192 18.641 C 81.72 19.594 80.989 20.394 80.082 20.949 C 79.183 21.504 78.132 21.781 76.93 21.781 Z M 76.929 19.625 C 77.679 19.625 78.309 19.434 78.816 19.051 C 79.332 18.668 79.722 18.145 79.988 17.481 C 80.254 16.809 80.387 16.047 80.387 15.195 C 80.387 14.328 80.254 13.562 79.988 12.898 C 79.722 12.227 79.332 11.699 78.816 11.316 C 78.308 10.926 77.68 10.73 76.93 10.73 C 76.187 10.73 75.558 10.922 75.043 11.305 C 74.527 11.688 74.137 12.215 73.871 12.887 C 73.613 13.559 73.484 14.328 73.484 15.195 C 73.484 16.047 73.614 16.809 73.871 17.48 C 74.137 18.145 74.527 18.668 75.043 19.05 C 75.558 19.434 76.187 19.625 76.929 19.625 Z M 84.876 16.332 L 84.688 4.039 L 87.442 4.039 L 87.243 16.332 Z M 86.071 21.687 C 85.594 21.687 85.192 21.527 84.864 21.207 C 84.55 20.894 84.377 20.466 84.384 20.023 C 84.384 19.547 84.544 19.148 84.864 18.828 C 85.192 18.508 85.594 18.348 86.071 18.348 C 86.548 18.348 86.946 18.508 87.266 18.828 C 87.594 19.148 87.759 19.547 87.759 20.023 C 87.759 20.484 87.594 20.879 87.266 21.207 C 86.946 21.527 86.548 21.687 86.071 21.687 Z" fill="#5A6271"></path></svg>