<svg xmlns:xlink="http://www.w3.org/1999/xlink" xmlns="http://www.w3.org/2000/svg" viewBox="0 0 112 26" id="svg11117021600" width="112"  height="26" ><path d="M 15.043 17.896 L 10.984 17.896 L 10.984 26 L 15.044 26 L 15.044 17.896 Z M 15.043 0 L 10.984 0 L 10.984 8.103 L 15.044 8.103 L 15.044 0 Z M 17.895 10.97 L 17.895 15.028 L 25.998 15.028 L 25.998 10.97 L 17.894 10.97 Z M 0 10.973 L 0 15.032 L 8.103 15.032 L 8.103 10.972 L 0 10.972 Z" fill="#5A6271"></path><path d="M 17.901 15.016 L 15.031 17.886 L 20.761 23.616 L 23.631 20.746 Z M 5.245 2.364 L 2.375 5.234 L 8.105 10.964 L 10.975 8.094 Z M 15.02 8.106 L 17.89 10.976 L 23.62 5.246 L 20.75 2.376 Z M 2.368 20.758 L 5.238 23.628 L 10.968 17.898 L 8.098 15.028 Z M 36.742 21.5 L 36.742 4.04 L 43.106 4.04 C 44.402 4.04 45.5 4.273 46.398 4.742 C 47.305 5.211 47.992 5.859 48.461 6.688 C 48.938 7.516 49.176 8.48 49.176 9.582 C 49.176 10.676 48.934 11.641 48.449 12.477 C 47.973 13.312 47.277 13.965 46.363 14.434 C 45.457 14.902 44.355 15.137 43.059 15.137 L 38.37 15.137 L 38.37 12.875 L 42.917 12.875 C 43.722 12.875 44.39 12.738 44.921 12.465 C 45.434 12.209 45.859 11.805 46.14 11.305 C 46.413 10.805 46.55 10.23 46.55 9.582 C 46.55 8.926 46.413 8.355 46.14 7.872 C 45.86 7.373 45.435 6.972 44.92 6.722 C 44.382 6.449 43.71 6.312 42.905 6.312 L 39.38 6.312 L 39.38 21.5 L 36.743 21.5 Z M 55.61 21.781 C 54.407 21.781 53.352 21.504 52.446 20.949 C 51.548 20.394 50.849 19.625 50.349 18.641 C 49.849 17.648 49.599 16.5 49.599 15.195 C 49.599 13.883 49.849 12.73 50.349 11.738 C 50.849 10.738 51.548 9.961 52.446 9.406 C 53.353 8.852 54.407 8.574 55.61 8.574 C 56.813 8.574 57.864 8.852 58.763 9.406 C 59.669 9.961 60.372 10.738 60.872 11.738 C 61.372 12.73 61.622 13.883 61.622 15.195 C 61.622 16.5 61.372 17.648 60.872 18.641 C 60.372 19.625 59.669 20.395 58.762 20.949 C 57.864 21.504 56.813 21.781 55.61 21.781 Z M 55.61 19.625 C 56.36 19.625 56.99 19.434 57.497 19.051 C 58.013 18.668 58.403 18.145 58.669 17.481 C 58.935 16.809 59.067 16.047 59.067 15.195 C 59.067 14.328 58.934 13.562 58.669 12.898 C 58.403 12.227 58.013 11.699 57.497 11.316 C 56.989 10.926 56.36 10.73 55.61 10.73 C 54.868 10.73 54.24 10.922 53.724 11.305 C 53.208 11.688 52.817 12.215 52.552 12.887 C 52.294 13.559 52.165 14.328 52.165 15.195 C 52.165 16.047 52.294 16.809 52.552 17.48 C 52.817 18.145 53.208 18.668 53.724 19.05 C 54.239 19.434 54.868 19.625 55.61 19.625 Z M 65.666 4.039 L 65.666 21.5 L 63.146 21.5 L 63.146 4.04 L 65.666 4.04 Z M 70.331 4.039 L 70.331 21.5 L 67.811 21.5 L 67.811 4.04 L 70.331 4.04 Z M 78.488 8.797 L 78.488 10.871 L 71.351 10.871 L 71.351 8.797 Z M 73.414 5.539 L 75.934 5.539 L 75.934 18.102 C 75.934 18.594 76.035 18.945 76.238 19.156 C 76.441 19.367 76.793 19.473 77.293 19.473 C 77.457 19.473 77.648 19.465 77.867 19.449 C 78.094 19.434 78.289 19.418 78.453 19.402 L 78.653 21.465 C 78.385 21.507 78.114 21.535 77.843 21.547 C 77.547 21.562 77.262 21.57 76.988 21.57 C 75.808 21.57 74.918 21.3 74.316 20.762 C 73.715 20.222 73.414 19.43 73.414 18.382 L 73.414 5.54 Z M 79.766 21.5 L 79.766 8.797 L 82.192 8.797 L 82.192 10.847 L 82.274 10.847 C 82.509 10.16 82.895 9.621 83.434 9.23 C 83.974 8.832 84.634 8.633 85.414 8.633 C 85.594 8.633 85.774 8.641 85.954 8.656 C 86.134 8.664 86.282 8.676 86.399 8.691 L 86.399 11.071 C 86.225 11.034 86.049 11.007 85.872 10.988 C 85.608 10.956 85.341 10.94 85.075 10.941 C 84.58 10.934 84.091 11.055 83.657 11.293 C 83.23 11.524 82.88 11.874 82.649 12.301 C 82.407 12.738 82.286 13.273 82.286 13.906 L 82.286 21.5 Z M 92.599 21.781 C 91.342 21.781 90.259 21.504 89.353 20.949 C 88.454 20.386 87.731 19.582 87.267 18.629 C 86.783 17.637 86.541 16.496 86.541 15.207 C 86.541 13.91 86.787 12.766 87.279 11.773 C 87.771 10.773 88.459 9.993 89.342 9.43 C 90.232 8.86 91.26 8.574 92.424 8.574 C 93.244 8.574 94.006 8.714 94.709 8.996 C 95.412 9.277 96.025 9.696 96.549 10.25 C 97.079 10.805 97.494 11.488 97.791 12.3 C 98.088 13.105 98.236 14.035 98.236 15.09 L 98.236 15.875 L 87.795 15.875 L 87.795 13.977 L 96.924 13.977 L 95.787 14.574 C 95.787 13.793 95.654 13.109 95.388 12.524 C 95.123 11.938 94.74 11.484 94.24 11.164 C 93.748 10.836 93.146 10.672 92.435 10.672 C 91.74 10.672 91.138 10.836 90.631 11.164 C 90.123 11.484 89.728 11.93 89.447 12.5 C 89.174 13.07 89.037 13.723 89.037 14.457 L 89.037 15.629 C 89.037 16.457 89.181 17.176 89.47 17.785 C 89.735 18.367 90.168 18.857 90.713 19.191 C 91.252 19.52 91.888 19.684 92.623 19.684 C 93.094 19.691 93.562 19.616 94.006 19.461 C 94.782 19.173 95.386 18.547 95.646 17.761 L 98.036 18.008 C 97.873 18.742 97.522 19.42 97.017 19.977 C 96.517 20.539 95.888 20.98 95.131 21.301 C 94.373 21.621 93.529 21.781 92.599 21.781 Z M 105.163 21.781 C 103.905 21.781 102.823 21.504 101.917 20.949 C 101.018 20.386 100.295 19.582 99.831 18.629 C 99.346 17.637 99.104 16.496 99.104 15.207 C 99.104 13.91 99.35 12.766 99.843 11.773 C 100.335 10.773 101.022 9.993 101.905 9.43 C 102.796 8.86 103.823 8.574 104.987 8.574 C 105.807 8.574 106.569 8.714 107.272 8.996 C 107.97 9.274 108.598 9.702 109.112 10.25 C 109.643 10.805 110.057 11.488 110.354 12.3 C 110.651 13.105 110.8 14.035 110.8 15.09 L 110.8 15.875 L 100.358 15.875 L 100.358 13.977 L 109.487 13.977 L 108.35 14.574 C 108.35 13.793 108.217 13.109 107.952 12.524 C 107.686 11.938 107.303 11.484 106.803 11.164 C 106.311 10.836 105.71 10.672 104.999 10.672 C 104.303 10.672 103.702 10.836 103.194 11.164 C 102.686 11.484 102.292 11.93 102.01 12.5 C 101.737 13.07 101.6 13.723 101.6 14.457 L 101.6 15.629 C 101.6 16.457 101.745 17.176 102.034 17.785 C 102.299 18.367 102.731 18.856 103.276 19.191 C 103.815 19.52 104.452 19.684 105.186 19.684 C 105.656 19.691 106.125 19.616 106.569 19.461 C 106.955 19.318 107.304 19.09 107.589 18.793 C 107.872 18.501 108.084 18.148 108.21 17.762 L 110.6 18.008 C 110.437 18.742 110.086 19.42 109.581 19.977 C 109.081 20.539 108.452 20.98 107.694 21.301 C 106.936 21.621 106.092 21.781 105.163 21.781 Z" fill="#5A6271"></path></svg>