<svg xmlns:xlink="http://www.w3.org/1999/xlink" xmlns="http://www.w3.org/2000/svg" viewBox="0 0 108 27" id="svg11482297545" width="108"  height="27" ><path d="M 0 13 C -0.003 14.725 0.681 16.38 1.901 17.599 C 3.12 18.819 4.775 19.503 6.5 19.5 L 6.5 6.5 C 2.91 6.5 0 9.41 0 13 Z M 13 26 C 14.725 26.003 16.38 25.319 17.599 24.099 C 18.819 22.88 19.503 21.225 19.5 19.5 L 6.5 19.5 C 6.497 21.225 7.181 22.88 8.401 24.099 C 9.62 25.319 11.275 26.003 13 26 Z M 19.5 6.5 L 19.5 19.5 C 23.097 19.5 26 16.597 26 13 C 26 9.403 23.097 6.5 19.5 6.5 Z M 6.5 6.5 L 19.5 6.5 C 19.503 4.775 18.819 3.12 17.599 1.901 C 16.38 0.681 14.725 -0.003 13 0 C 9.41 0 6.5 2.91 6.5 6.5 Z M 44.14 21.758 C 42.578 21.758 41.191 21.391 39.98 20.656 C 38.777 19.914 37.832 18.871 37.145 17.527 C 36.457 16.184 36.113 14.602 36.113 12.781 C 36.113 10.953 36.453 9.367 37.133 8.023 C 37.82 6.672 38.769 5.629 39.98 4.895 C 41.191 4.152 42.578 3.781 44.14 3.781 C 45.078 3.781 45.953 3.918 46.766 4.191 C 47.586 4.465 48.316 4.863 48.957 5.387 C 49.607 5.913 50.152 6.557 50.562 7.285 C 50.984 8.02 51.273 8.852 51.43 9.781 L 48.758 9.781 C 48.654 9.237 48.451 8.717 48.16 8.246 C 47.888 7.811 47.539 7.43 47.129 7.121 C 46.723 6.805 46.262 6.566 45.769 6.418 C 45.245 6.258 44.7 6.179 44.152 6.184 C 43.074 6.184 42.129 6.449 41.316 6.98 C 40.504 7.512 39.871 8.273 39.418 9.266 C 38.973 10.25 38.75 11.422 38.75 12.781 C 38.75 14.141 38.977 15.312 39.43 16.297 C 39.883 17.281 40.512 18.039 41.316 18.57 C 42.129 19.094 43.074 19.355 44.152 19.355 C 44.73 19.355 45.269 19.277 45.769 19.121 C 46.269 18.965 46.723 18.734 47.129 18.43 C 47.535 18.125 47.879 17.75 48.16 17.305 C 48.441 16.859 48.645 16.348 48.77 15.77 L 51.43 15.77 C 51.302 16.631 51.016 17.462 50.586 18.219 C 50.178 18.946 49.637 19.59 48.992 20.117 C 48.352 20.641 47.622 21.047 46.801 21.336 C 45.944 21.623 45.045 21.766 44.141 21.758 Z M 55.59 4.039 L 55.59 21.5 L 53.071 21.5 L 53.071 4.04 L 55.591 4.04 Z M 63.139 21.781 C 61.935 21.781 60.881 21.504 59.974 20.949 C 59.076 20.394 58.377 19.625 57.877 18.641 C 57.377 17.648 57.127 16.5 57.127 15.195 C 57.127 13.883 57.377 12.73 57.877 11.738 C 58.377 10.738 59.077 9.961 59.974 9.406 C 60.881 8.852 61.936 8.574 63.139 8.574 C 64.342 8.574 65.392 8.852 66.291 9.406 C 67.197 9.961 67.901 10.738 68.401 11.738 C 68.901 12.73 69.151 13.883 69.151 15.195 C 69.151 16.5 68.901 17.648 68.401 18.641 C 67.929 19.594 67.198 20.394 66.291 20.949 C 65.393 21.504 64.341 21.781 63.139 21.781 Z M 63.139 19.625 C 63.889 19.625 64.517 19.434 65.025 19.051 C 65.541 18.668 65.932 18.145 66.197 17.481 C 66.463 16.809 66.596 16.047 66.596 15.195 C 66.596 14.328 66.463 13.562 66.197 12.898 C 65.932 12.227 65.541 11.699 65.025 11.316 C 64.517 10.926 63.889 10.73 63.139 10.73 C 62.396 10.73 61.767 10.922 61.252 11.305 C 60.736 11.688 60.346 12.215 60.08 12.887 C 59.822 13.559 59.693 14.328 59.693 15.195 C 59.693 16.047 59.823 16.809 60.08 17.48 C 60.346 18.145 60.736 18.668 61.252 19.05 C 61.767 19.434 62.396 19.625 63.139 19.625 Z M 73.194 14.094 L 73.194 21.5 L 70.674 21.5 L 70.674 8.797 L 73.112 8.797 L 73.124 11.937 L 72.69 11.937 C 73.08 10.797 73.64 9.957 74.366 9.418 C 75.093 8.871 75.968 8.598 76.991 8.598 C 77.858 8.598 78.628 8.785 79.3 9.16 C 79.972 9.527 80.499 10.074 80.882 10.8 C 81.264 11.527 81.456 12.434 81.456 13.52 L 81.456 21.5 L 78.936 21.5 L 78.936 13.824 C 78.936 12.855 78.694 12.114 78.21 11.598 C 77.733 11.082 77.065 10.824 76.206 10.824 C 75.636 10.824 75.124 10.945 74.671 11.188 C 74.211 11.43 73.835 11.806 73.593 12.266 C 73.327 12.75 73.194 13.359 73.194 14.094 Z M 83.59 21.5 L 83.59 8.797 L 86.11 8.797 L 86.11 21.5 Z M 84.844 6.734 C 84.406 6.734 84.031 6.586 83.719 6.289 C 83.422 6.01 83.256 5.619 83.262 5.211 C 83.262 4.781 83.414 4.421 83.719 4.133 C 84.02 3.841 84.425 3.68 84.844 3.687 C 85.289 3.687 85.664 3.836 85.969 4.133 C 86.281 4.422 86.437 4.781 86.437 5.211 C 86.437 5.633 86.281 5.992 85.969 6.289 C 85.67 6.584 85.264 6.744 84.844 6.734 Z M 94.477 8.797 L 94.477 10.871 L 86.92 10.871 L 86.92 8.797 L 94.478 8.797 Z M 89.251 21.5 L 89.251 7.027 C 89.251 6.301 89.407 5.691 89.719 5.199 C 90.039 4.699 90.477 4.32 91.032 4.063 C 91.587 3.805 92.223 3.676 92.942 3.676 C 93.348 3.676 93.712 3.696 94.032 3.734 C 94.36 3.766 94.591 3.797 94.723 3.828 L 94.453 5.891 C 94.294 5.869 94.134 5.854 93.973 5.844 C 93.759 5.821 93.544 5.809 93.329 5.809 C 92.774 5.809 92.376 5.937 92.134 6.195 C 91.891 6.453 91.77 6.855 91.77 7.402 L 91.77 21.5 L 89.25 21.5 Z M 95.791 26.316 L 96.072 24.219 L 96.939 24.254 C 97.283 24.309 97.588 24.297 97.853 24.219 C 98.119 24.141 98.349 23.98 98.545 23.739 C 98.748 23.496 98.92 23.16 99.06 22.73 L 99.494 21.477 L 94.631 8.797 L 97.338 8.797 L 99.858 15.887 C 100.115 16.605 100.345 17.324 100.549 18.043 C 100.752 18.762 100.959 19.481 101.17 20.199 L 100.443 20.199 L 101.076 18.043 C 101.287 17.316 101.517 16.598 101.767 15.887 L 104.31 8.797 L 106.982 8.797 L 101.334 23.516 C 101.084 24.156 100.775 24.691 100.408 25.121 C 100.066 25.546 99.628 25.883 99.131 26.106 C 98.646 26.332 98.091 26.446 97.467 26.446 C 97.158 26.447 96.849 26.431 96.541 26.398 C 96.251 26.375 96.001 26.348 95.791 26.316 Z" fill="#5A6271"></path></svg>