<svg xmlns:xlink="http://www.w3.org/1999/xlink" xmlns="http://www.w3.org/2000/svg" viewBox="0 0 97 26" id="svg12033186611" width="97"  height="26" ><path d="M 19.874 11.41 C 19.125 12.163 18.751 13.21 18.853 14.267 L 18.835 14.249 C 18.941 15.492 18.491 16.719 17.608 17.6 C 16.724 18.483 15.496 18.932 14.251 18.826 L 14.269 18.843 C 12.762 18.703 11.33 19.522 10.684 20.89 C 10.041 22.258 10.326 23.883 11.397 24.95 C 12.468 26.02 14.095 26.304 15.465 25.659 C 16.833 25.016 17.651 23.584 17.512 22.079 L 17.53 22.096 C 17.368 20.191 18.503 18.415 20.3 17.762 C 20.88 17.55 21.499 17.467 22.114 17.519 L 22.096 17.502 C 23.317 17.611 24.509 17.089 25.258 16.119 C 26.007 15.149 26.206 13.863 25.787 12.711 C 25.367 11.56 24.387 10.703 23.19 10.442 C 21.993 10.178 20.743 10.543 19.877 11.411 L 19.874 11.411 Z" fill="#5A6271"></path><path d="M 12.669 16.544 L 12.65 16.527 C 14.271 16.689 15.794 15.728 16.345 14.195 C 16.522 13.701 16.587 13.174 16.535 12.652 L 16.553 12.67 C 16.391 10.765 17.526 8.989 19.323 8.336 C 19.903 8.124 20.522 8.041 21.137 8.093 L 21.118 8.075 C 22.625 8.216 24.059 7.399 24.705 6.031 C 25.35 4.663 25.065 3.037 23.994 1.969 C 22.923 0.902 21.299 0.619 19.93 1.262 C 18.561 1.904 17.741 3.334 17.878 4.84 L 17.86 4.822 C 18.022 6.727 16.887 8.503 15.09 9.156 C 14.51 9.368 13.891 9.451 13.276 9.399 L 13.294 9.417 C 12.236 9.311 11.185 9.684 10.432 10.435 C 9.68 11.186 9.305 12.235 9.41 13.292 L 9.393 13.274 C 9.555 15.178 8.419 16.955 6.623 17.608 C 6.043 17.82 5.424 17.903 4.809 17.851 L 4.826 17.869 C 3.32 17.728 1.886 18.545 1.24 19.913 C 0.595 21.281 0.879 22.907 1.95 23.975 C 3.021 25.043 4.646 25.327 6.015 24.684 C 7.384 24.041 8.204 22.61 8.066 21.104 L 8.085 21.121 C 7.98 19.878 8.429 18.651 9.312 17.77 C 10.196 16.887 11.424 16.438 12.669 16.544 Z" fill="#5A6271"></path><path d="M 6.123 14.587 C 6.872 13.835 7.246 12.787 7.143 11.731 L 7.163 11.749 C 7.001 9.844 8.136 8.067 9.933 7.414 C 10.513 7.203 11.133 7.12 11.748 7.172 L 11.73 7.155 C 13.236 7.295 14.668 6.478 15.314 5.11 C 15.958 3.742 15.674 2.118 14.604 1.05 C 13.533 -0.017 11.909 -0.3 10.541 0.342 C 9.172 0.984 8.352 2.414 8.489 3.92 L 8.472 3.902 C 8.577 5.145 8.128 6.372 7.244 7.253 C 6.361 8.136 5.133 8.585 3.888 8.48 L 3.905 8.497 C 2.684 8.388 1.492 8.909 0.743 9.88 C -0.006 10.851 -0.205 12.137 0.215 13.289 C 0.635 14.441 1.615 15.297 2.813 15.558 C 4.01 15.821 5.259 15.455 6.125 14.588 L 6.123 14.588 Z M 35.688 21.5 L 35.688 4.04 L 42.168 4.04 C 43.387 4.04 44.414 4.234 45.25 4.625 C 46.086 5.015 46.719 5.555 47.148 6.242 C 47.578 6.93 47.793 7.722 47.793 8.622 C 47.793 9.316 47.668 9.914 47.418 10.414 C 47.168 10.914 46.82 11.324 46.375 11.644 C 45.937 11.964 45.43 12.207 44.852 12.371 L 44.852 12.465 C 45.482 12.526 46.088 12.735 46.622 13.075 C 47.176 13.418 47.622 13.891 47.957 14.492 C 48.301 15.094 48.473 15.824 48.473 16.684 C 48.473 17.629 48.25 18.464 47.805 19.191 C 47.367 19.911 46.699 20.477 45.801 20.891 C 44.902 21.297 43.769 21.5 42.402 21.5 L 35.687 21.5 Z M 38.312 19.262 L 42.192 19.262 C 43.41 19.262 44.32 19.027 44.922 18.559 C 45.523 18.082 45.824 17.437 45.824 16.625 C 45.824 16.047 45.684 15.539 45.402 15.102 C 45.122 14.656 44.715 14.309 44.184 14.059 C 43.66 13.809 43.031 13.684 42.297 13.684 L 38.313 13.684 L 38.313 19.262 Z M 38.312 11.574 L 42.039 11.574 C 42.672 11.574 43.223 11.464 43.691 11.246 C 44.138 11.046 44.517 10.721 44.781 10.309 C 45.047 9.902 45.18 9.426 45.18 8.879 C 45.18 8.105 44.914 7.48 44.383 7.004 C 43.852 6.52 43.082 6.277 42.074 6.277 L 38.313 6.277 L 38.313 11.574 Z M 52.587 4.04 L 52.587 21.5 L 50.067 21.5 L 50.067 4.04 Z M 54.732 21.5 L 54.732 8.797 L 57.252 8.797 L 57.252 21.5 Z M 55.986 6.734 C 55.549 6.734 55.174 6.586 54.861 6.289 C 54.564 6.01 54.398 5.619 54.404 5.211 C 54.404 4.781 54.557 4.421 54.861 4.133 C 55.162 3.841 55.567 3.68 55.986 3.687 C 56.432 3.687 56.806 3.836 57.111 4.133 C 57.424 4.422 57.58 4.781 57.58 5.211 C 57.58 5.633 57.424 5.992 57.111 6.289 C 56.812 6.584 56.406 6.744 55.986 6.734 Z M 64.038 21.781 C 63.085 21.781 62.233 21.637 61.483 21.348 C 60.741 21.058 60.136 20.628 59.667 20.058 C 59.198 19.48 58.913 18.773 58.811 17.938 L 61.249 17.715 C 61.366 18.387 61.659 18.898 62.128 19.25 C 62.604 19.594 63.233 19.766 64.014 19.766 C 64.819 19.766 65.456 19.602 65.924 19.273 C 66.401 18.938 66.639 18.523 66.639 18.031 C 66.639 17.609 66.479 17.27 66.159 17.011 C 65.847 16.746 65.401 16.551 64.823 16.426 L 62.702 15.946 C 61.522 15.68 60.632 15.25 60.03 14.656 C 59.436 14.062 59.14 13.301 59.14 12.371 C 59.14 11.621 59.343 10.961 59.749 10.391 C 60.163 9.821 60.737 9.375 61.472 9.055 C 62.206 8.735 63.054 8.575 64.014 8.575 C 64.952 8.575 65.768 8.727 66.464 9.031 C 67.167 9.336 67.725 9.766 68.139 10.321 C 68.561 10.875 68.823 11.527 68.925 12.277 L 66.581 12.512 C 66.507 11.973 66.236 11.48 65.819 11.129 C 65.389 10.754 64.799 10.566 64.049 10.566 C 63.339 10.566 62.761 10.73 62.315 11.059 C 61.878 11.387 61.659 11.793 61.659 12.277 C 61.659 12.699 61.819 13.043 62.139 13.309 C 62.459 13.574 62.932 13.777 63.557 13.918 L 65.655 14.387 C 66.874 14.66 67.768 15.082 68.339 15.652 C 68.917 16.215 69.206 16.949 69.206 17.856 C 69.206 18.644 68.983 19.336 68.538 19.93 C 68.1 20.516 67.491 20.973 66.71 21.3 C 65.929 21.621 65.038 21.781 64.038 21.781 Z M 75.359 21.781 C 74.406 21.781 73.555 21.637 72.805 21.348 C 72.062 21.058 71.457 20.628 70.988 20.058 C 70.519 19.48 70.234 18.773 70.133 17.938 L 72.57 17.715 C 72.687 18.387 72.98 18.898 73.45 19.25 C 73.926 19.594 74.555 19.766 75.336 19.766 C 76.141 19.766 76.777 19.602 77.246 19.273 C 77.723 18.938 77.961 18.523 77.961 18.031 C 77.961 17.609 77.801 17.27 77.481 17.011 C 77.168 16.746 76.723 16.551 76.144 16.426 L 74.024 15.946 C 72.844 15.68 71.953 15.25 71.351 14.656 C 70.758 14.062 70.461 13.301 70.461 12.371 C 70.461 11.621 70.664 10.961 71.071 10.391 C 71.484 9.821 72.058 9.375 72.793 9.055 C 73.527 8.735 74.375 8.575 75.336 8.575 C 76.273 8.575 77.09 8.727 77.785 9.031 C 78.488 9.336 79.047 9.766 79.461 10.321 C 79.883 10.875 80.144 11.527 80.246 12.277 L 77.902 12.512 C 77.828 11.973 77.557 11.48 77.141 11.129 C 76.711 10.754 76.121 10.566 75.371 10.566 C 74.66 10.566 74.081 10.73 73.637 11.059 C 73.199 11.387 72.98 11.793 72.98 12.277 C 72.98 12.699 73.14 13.043 73.46 13.309 C 73.781 13.574 74.254 13.777 74.879 13.918 L 76.976 14.387 C 78.196 14.66 79.09 15.082 79.66 15.652 C 80.238 16.215 80.527 16.949 80.527 17.856 C 80.527 18.644 80.305 19.336 79.859 19.93 C 79.422 20.516 78.812 20.973 78.031 21.3 C 77.25 21.621 76.359 21.781 75.359 21.781 Z M 87.161 20.457 L 87.161 8.937 L 89.434 8.937 L 89.434 20.457 Z M 82.544 15.769 L 82.544 13.613 L 94.052 13.613 L 94.052 15.77 L 82.544 15.77 Z" fill="#5A6271"></path></svg>