<svg xmlns:xlink="http://www.w3.org/1999/xlink" xmlns="http://www.w3.org/2000/svg" viewBox="0 0 85 26" id="svg9201234843" width="85"  height="26" ><path d="M 24.809 26 C 28.954 25.915 32.286 22.495 32.286 18.29 C 32.287 16.249 31.484 14.29 30.049 12.839 L 17.331 0 L 17.331 7.98 C 17.331 9.315 17.857 10.595 18.791 11.538 L 21.771 14.546 L 21.779 14.554 L 26.774 19.597 C 26.936 19.761 26.936 20.026 26.774 20.19 C 26.696 20.268 26.591 20.312 26.48 20.312 C 26.37 20.312 26.265 20.268 26.187 20.19 L 24.465 18.452 L 8.536 18.452 L 6.814 20.19 C 6.736 20.268 6.631 20.312 6.521 20.312 C 6.41 20.312 6.305 20.268 6.227 20.19 C 6.065 20.026 6.065 19.761 6.227 19.597 L 11.222 14.554 L 11.23 14.546 L 14.21 11.538 C 15.146 10.591 15.671 9.312 15.67 7.98 L 15.67 0 L 2.952 12.839 C 1.517 14.29 0.714 16.249 0.715 18.29 C 0.715 22.495 4.048 25.915 8.192 26 L 24.81 26 Z M 41.973 21.5 L 41.973 4.04 L 53.117 4.04 L 53.117 6.324 L 44.61 6.324 L 44.61 11.727 L 52.392 11.727 L 52.392 14 L 44.61 14 L 44.61 21.5 L 41.974 21.5 Z M 57.138 4.04 L 57.138 21.5 L 54.618 21.5 L 54.618 4.04 Z M 64.732 21.781 C 63.474 21.781 62.392 21.504 61.486 20.949 C 60.587 20.386 59.864 19.582 59.4 18.629 C 58.916 17.637 58.674 16.496 58.674 15.207 C 58.674 13.91 58.92 12.766 59.412 11.773 C 59.904 10.773 60.592 9.993 61.475 9.43 C 62.365 8.86 63.392 8.574 64.557 8.574 C 65.377 8.574 66.139 8.714 66.842 8.996 C 67.545 9.277 68.158 9.696 68.682 10.25 C 69.212 10.805 69.627 11.488 69.924 12.3 C 70.221 13.105 70.369 14.035 70.369 15.09 L 70.369 15.875 L 59.928 15.875 L 59.928 13.977 L 69.057 13.977 L 67.92 14.574 C 67.92 13.793 67.787 13.109 67.521 12.524 C 67.256 11.938 66.873 11.484 66.373 11.164 C 65.881 10.836 65.279 10.672 64.568 10.672 C 63.873 10.672 63.271 10.836 62.764 11.164 C 62.256 11.484 61.861 11.93 61.58 12.5 C 61.307 13.07 61.17 13.723 61.17 14.457 L 61.17 15.629 C 61.17 16.457 61.314 17.176 61.603 17.785 C 61.893 18.395 62.307 18.863 62.846 19.191 C 63.385 19.52 64.021 19.684 64.756 19.684 C 65.227 19.691 65.695 19.616 66.139 19.461 C 66.916 19.173 67.519 18.547 67.779 17.761 L 70.169 18.008 C 70.006 18.742 69.655 19.42 69.15 19.977 C 68.65 20.539 68.021 20.98 67.264 21.301 C 66.506 21.621 65.662 21.781 64.732 21.781 Z M 75.761 21.734 C 74.933 21.734 74.191 21.59 73.534 21.301 C 72.9 21.031 72.359 20.583 71.975 20.011 C 71.593 19.434 71.401 18.727 71.401 17.891 C 71.401 17.164 71.538 16.571 71.811 16.109 C 72.087 15.653 72.474 15.274 72.936 15.008 C 73.438 14.725 73.979 14.519 74.542 14.398 C 75.136 14.258 75.745 14.152 76.37 14.082 C 77.143 13.98 77.76 13.902 78.222 13.848 C 78.69 13.785 79.03 13.688 79.242 13.555 C 79.452 13.422 79.558 13.207 79.558 12.91 L 79.558 12.816 C 79.558 12.379 79.46 12 79.264 11.68 C 79.064 11.347 78.765 11.085 78.409 10.93 C 78.042 10.75 77.589 10.66 77.049 10.66 C 76.503 10.66 76.026 10.746 75.62 10.918 C 75.247 11.071 74.914 11.308 74.647 11.609 C 74.41 11.88 74.245 12.207 74.167 12.559 L 71.741 12.277 C 71.897 11.488 72.218 10.82 72.702 10.273 C 73.21 9.716 73.845 9.289 74.554 9.031 C 75.304 8.742 76.136 8.598 77.05 8.598 C 77.687 8.596 78.321 8.678 78.936 8.844 C 79.514 8.996 80.058 9.254 80.542 9.605 C 81.011 9.949 81.378 10.395 81.643 10.941 C 81.917 11.488 82.053 12.148 82.053 12.921 L 82.053 21.5 L 79.593 21.5 L 79.593 19.73 L 79.511 19.73 C 79.321 20.09 79.071 20.415 78.772 20.691 C 78.46 20.996 78.057 21.246 77.565 21.441 C 77.073 21.637 76.472 21.734 75.761 21.734 Z M 76.288 19.719 C 77.007 19.719 77.608 19.586 78.093 19.32 C 78.577 19.047 78.94 18.691 79.183 18.254 C 79.433 17.809 79.557 17.332 79.557 16.824 L 79.557 15.277 C 79.472 15.356 79.315 15.43 79.089 15.5 C 78.87 15.563 78.609 15.621 78.304 15.676 C 78.007 15.73 77.698 15.781 77.378 15.828 C 77.065 15.875 76.772 15.918 76.498 15.957 C 76.058 16.014 75.626 16.12 75.21 16.273 C 74.811 16.414 74.491 16.617 74.249 16.883 C 74.015 17.148 73.897 17.496 73.897 17.926 C 73.897 18.309 73.999 18.633 74.202 18.898 C 74.405 19.164 74.682 19.368 75.034 19.508 C 75.394 19.648 75.811 19.718 76.288 19.718 Z" fill="#5A6271"></path></svg>