<svg xmlns:xlink="http://www.w3.org/1999/xlink" xmlns="http://www.w3.org/2000/svg" viewBox="0 0 95 26" id="svg11777110811" width="95"  height="26" ><g><path d="M 0 0 L 31.571 0 L 31.571 26 L 0 26 Z" fill="#000000" fill-opacity="0"></path><path d="M 0 9.75 L 0 20.15 L 4.385 20.15 C 4.845 20.15 5.302 20.217 5.727 20.348 C 6.153 20.478 6.54 20.67 6.865 20.912 C 7.191 21.152 7.45 21.44 7.625 21.755 C 7.802 22.071 7.893 22.409 7.893 22.75 L 7.893 26 L 18.417 26 L 31.571 16.25 L 31.571 5.85 L 27.186 5.85 C 26.726 5.85 26.27 5.783 25.844 5.652 C 25.436 5.53 25.051 5.339 24.706 5.088 C 24.396 4.864 24.137 4.577 23.946 4.245 C 23.773 3.942 23.681 3.599 23.679 3.25 L 23.679 0 L 13.155 0 Z M 14.909 19.5 L 8.769 19.5 L 8.769 12.35 L 16.663 6.5 L 22.802 6.5 L 22.802 13.65 Z" fill="#5A6271"></path></g><path d="M 48.652 21.758 C 47.09 21.758 45.703 21.391 44.492 20.656 C 43.289 19.914 42.344 18.871 41.656 17.527 C 40.969 16.184 40.625 14.602 40.625 12.781 C 40.625 10.953 40.965 9.367 41.645 8.023 C 42.332 6.672 43.281 5.629 44.492 4.895 C 45.703 4.152 47.09 3.781 48.652 3.781 C 49.59 3.781 50.465 3.918 51.277 4.191 C 52.097 4.465 52.828 4.863 53.469 5.387 C 54.119 5.913 54.664 6.557 55.074 7.285 C 55.496 8.02 55.785 8.852 55.941 9.781 L 53.27 9.781 C 53.166 9.237 52.964 8.717 52.673 8.246 C 52.401 7.811 52.052 7.43 51.642 7.121 C 51.236 6.805 50.775 6.566 50.282 6.418 C 49.758 6.258 49.213 6.179 48.665 6.184 C 47.587 6.184 46.642 6.449 45.829 6.98 C 45.017 7.512 44.384 8.273 43.931 9.266 C 43.485 10.25 43.263 11.422 43.263 12.781 C 43.263 14.141 43.489 15.312 43.943 16.297 C 44.396 17.281 45.024 18.039 45.829 18.57 C 46.642 19.094 47.587 19.355 48.665 19.355 C 49.243 19.355 49.782 19.277 50.282 19.121 C 50.782 18.965 51.235 18.734 51.642 18.43 C 52.048 18.125 52.392 17.75 52.672 17.305 C 52.954 16.859 53.157 16.348 53.282 15.77 L 55.942 15.77 C 55.814 16.631 55.529 17.462 55.099 18.219 C 54.691 18.946 54.15 19.59 53.505 20.117 C 52.865 20.641 52.134 21.047 51.314 21.336 C 50.457 21.623 49.558 21.766 48.654 21.758 Z M 62.985 21.781 C 61.782 21.781 60.727 21.504 59.821 20.949 C 58.923 20.394 58.224 19.625 57.724 18.641 C 57.224 17.648 56.974 16.5 56.974 15.195 C 56.974 13.883 57.224 12.73 57.724 11.738 C 58.224 10.738 58.923 9.961 59.821 9.406 C 60.728 8.852 61.782 8.574 62.985 8.574 C 64.188 8.574 65.239 8.852 66.138 9.406 C 67.044 9.961 67.747 10.738 68.247 11.738 C 68.747 12.73 68.997 13.883 68.997 15.195 C 68.997 16.5 68.747 17.648 68.247 18.641 C 67.747 19.625 67.044 20.395 66.137 20.949 C 65.239 21.504 64.188 21.781 62.985 21.781 Z M 62.985 19.625 C 63.735 19.625 64.365 19.434 64.872 19.051 C 65.388 18.668 65.778 18.145 66.044 17.481 C 66.31 16.809 66.442 16.047 66.442 15.195 C 66.442 14.328 66.31 13.562 66.044 12.898 C 65.778 12.227 65.388 11.699 64.872 11.316 C 64.364 10.926 63.735 10.73 62.985 10.73 C 62.243 10.73 61.615 10.922 61.099 11.305 C 60.583 11.688 60.192 12.215 59.927 12.887 C 59.669 13.559 59.54 14.328 59.54 15.195 C 59.54 16.047 59.669 16.809 59.927 17.48 C 60.192 18.145 60.583 18.668 61.099 19.05 C 61.614 19.434 62.243 19.625 62.985 19.625 Z M 70.521 21.5 L 70.521 8.797 L 72.947 8.797 L 72.947 10.847 L 73.029 10.847 C 73.264 10.16 73.65 9.621 74.189 9.23 C 74.729 8.832 75.389 8.633 76.169 8.633 C 76.349 8.633 76.529 8.641 76.709 8.656 C 76.889 8.664 77.037 8.676 77.154 8.691 L 77.154 11.071 C 76.98 11.034 76.804 11.007 76.627 10.988 C 76.363 10.956 76.096 10.94 75.83 10.941 C 75.335 10.934 74.846 11.055 74.412 11.293 C 73.985 11.524 73.635 11.874 73.404 12.301 C 73.162 12.738 73.041 13.273 73.041 13.906 L 73.041 21.5 Z M 81.725 21.734 C 80.897 21.734 80.155 21.59 79.499 21.301 C 78.866 21.031 78.324 20.583 77.94 20.011 C 77.558 19.434 77.366 18.727 77.366 17.891 C 77.366 17.164 77.503 16.571 77.776 16.109 C 78.052 15.653 78.439 15.274 78.901 15.008 C 79.403 14.725 79.944 14.519 80.507 14.398 C 81.1 14.258 81.71 14.152 82.335 14.082 C 83.108 13.98 83.725 13.902 84.186 13.848 C 84.656 13.785 84.995 13.688 85.206 13.555 C 85.416 13.422 85.522 13.207 85.522 12.91 L 85.522 12.816 C 85.522 12.379 85.425 12 85.229 11.68 C 85.029 11.347 84.73 11.085 84.374 10.93 C 84.007 10.75 83.554 10.66 83.014 10.66 C 82.468 10.66 81.991 10.746 81.584 10.918 C 81.212 11.071 80.879 11.308 80.612 11.609 C 80.375 11.88 80.21 12.207 80.132 12.559 L 77.706 12.277 C 77.862 11.488 78.183 10.82 78.666 10.273 C 79.174 9.716 79.809 9.289 80.518 9.031 C 81.268 8.742 82.1 8.598 83.014 8.598 C 83.671 8.598 84.3 8.68 84.901 8.844 C 85.479 8.996 86.023 9.254 86.507 9.605 C 86.975 9.949 87.343 10.395 87.608 10.941 C 87.882 11.488 88.018 12.148 88.018 12.921 L 88.018 21.5 L 85.558 21.5 L 85.558 19.73 L 85.475 19.73 C 85.285 20.09 85.036 20.415 84.737 20.691 C 84.425 20.996 84.022 21.246 83.53 21.441 C 83.038 21.637 82.436 21.734 81.725 21.734 Z M 82.253 19.719 C 82.972 19.719 83.573 19.586 84.058 19.32 C 84.542 19.047 84.905 18.691 85.148 18.254 C 85.398 17.809 85.522 17.332 85.522 16.824 L 85.522 15.277 C 85.436 15.356 85.28 15.43 85.054 15.5 C 84.834 15.563 84.574 15.621 84.268 15.676 C 83.961 15.732 83.652 15.783 83.343 15.828 C 83.03 15.875 82.737 15.918 82.463 15.957 C 82.003 16.02 81.573 16.125 81.175 16.273 C 80.776 16.414 80.455 16.617 80.214 16.883 C 79.979 17.148 79.862 17.496 79.862 17.926 C 79.862 18.309 79.964 18.633 80.167 18.898 C 80.37 19.164 80.647 19.368 80.999 19.508 C 81.359 19.648 81.776 19.718 82.253 19.718 Z M 92.683 4.039 L 92.683 21.5 L 90.163 21.5 L 90.163 4.04 L 92.683 4.04 Z" fill="#5A6271"></path></svg>