<svg viewBox="0 0 120 30" xmlns:xlink="http://www.w3.org/1999/xlink" xmlns="http://www.w3.org/2000/svg" width="120" height="30" fill="none"><path fill="#fff" d="M42.907 8.377h-.864L37.003 22.8h-2.928L40.027 6h4.848l5.976 16.8h-2.928L42.907 8.377Zm-5.568 7.968h9.792v2.352h-9.792v-2.352Zm16.293 2.592c.112.448.304.792.576 1.032.288.24.6.408.936.504.336.08.656.12.96.12.624 0 1.112-.12 1.464-.36.368-.256.552-.576.552-.96 0-.32-.12-.568-.36-.744-.24-.176-.552-.312-.936-.408a53.553 53.553 0 0 0-1.152-.336c-.432-.112-.896-.24-1.392-.384a6.127 6.127 0 0 1-1.368-.6 3.279 3.279 0 0 1-1.056-.984c-.272-.4-.408-.896-.408-1.488 0-.752.208-1.4.624-1.944.416-.56.984-.992 1.704-1.296.72-.304 1.528-.456 2.424-.456 1.072 0 2 .224 2.784.672.784.448 1.352 1.104 1.704 1.968l-2.376.768a1.567 1.567 0 0 0-.504-.576 1.873 1.873 0 0 0-.768-.336 3.302 3.302 0 0 0-.888-.12c-.512 0-.944.104-1.296.312-.352.208-.528.504-.528.888 0 .192.056.36.168.504.128.144.296.264.504.36.208.08.456.16.744.24.288.064.592.144.912.24.512.144 1.016.304 1.512.48.512.16.976.368 1.392.624.432.256.768.592 1.008 1.008.256.416.4.944.432 1.584 0 .688-.2 1.32-.6 1.896-.4.56-.976 1.008-1.728 1.344-.736.32-1.616.48-2.64.48-1.184 0-2.2-.256-3.048-.768-.848-.512-1.424-1.336-1.728-2.472l2.376-.792ZM63.6 10.8V7.44h2.76v3.36h2.808v2.377H66.36v5.328c0 .72.136 1.224.408 1.512.272.272.624.424 1.056.456.448.016.896-.008 1.344-.072v2.304a6.772 6.772 0 0 1-2.04.12 4.111 4.111 0 0 1-1.776-.528c-.528-.32-.952-.784-1.272-1.392-.32-.608-.48-1.408-.48-2.4v-5.328h-1.68V10.8h1.68Zm12.56 12.169c-1.2 0-2.256-.264-3.168-.792a5.613 5.613 0 0 1-2.112-2.208c-.496-.944-.744-2.032-.744-3.264 0-1.168.248-2.208.744-3.12a5.582 5.582 0 0 1 2.064-2.16c.88-.528 1.88-.792 3-.792 1.136 0 2.136.248 3 .744a5.172 5.172 0 0 1 2.016 2.088c.496.88.744 1.904.744 3.072 0 .192-.008.4-.024.624-.016.208-.04.432-.072.672h-8.544c.08.56.256 1.048.528 1.464.288.4.648.712 1.08.936.432.224.928.336 1.488.336.672 0 1.272-.136 1.8-.408.544-.272.92-.632 1.128-1.08l2.376.792a5.43 5.43 0 0 1-2.136 2.28c-.944.544-2 .816-3.168.816Zm2.592-7.344a2.601 2.601 0 0 0-.408-1.344 2.696 2.696 0 0 0-1.008-.936c-.416-.24-.88-.36-1.392-.36-.448 0-.872.112-1.272.336-.4.224-.744.536-1.032.936-.272.384-.448.84-.528 1.368h5.64ZM83.54 10.8h2.448l.216 1.489c.32-.4.697-.728 1.129-.984a4.028 4.028 0 0 1 1.392-.552 3.558 3.558 0 0 1 1.535.048v2.496a2.695 2.695 0 0 0-1.344-.096c-.463.064-.895.24-1.295.528-.4.272-.728.664-.984 1.176-.257.496-.385 1.112-.385 1.848V22.8H83.54v-12Zm8.524 0h2.712v12h-2.712v-12Zm1.368-1.823c-.496 0-.912-.168-1.248-.504a1.639 1.639 0 0 1-.504-1.2c0-.496.168-.912.504-1.248a1.695 1.695 0 0 1 1.248-.504c.48 0 .888.168 1.224.504.336.336.504.752.504 1.248 0 .464-.168.864-.504 1.2a1.666 1.666 0 0 1-1.224.504Zm5.936 9.96c.112.448.304.792.576 1.032.288.24.6.408.936.504.336.08.656.12.96.12.624 0 1.112-.12 1.464-.36.368-.256.552-.576.552-.96 0-.32-.12-.568-.36-.744-.24-.176-.552-.312-.936-.408a53.553 53.553 0 0 0-1.152-.336c-.432-.112-.896-.24-1.392-.384a6.122 6.122 0 0 1-1.368-.6 3.279 3.279 0 0 1-1.056-.984c-.272-.4-.408-.896-.408-1.488 0-.752.208-1.4.624-1.944.416-.56.984-.992 1.704-1.296.72-.304 1.528-.456 2.424-.456 1.072 0 2 .224 2.784.672.784.448 1.352 1.104 1.704 1.968l-2.376.768a1.567 1.567 0 0 0-.504-.576 1.873 1.873 0 0 0-.768-.336 3.302 3.302 0 0 0-.888-.12c-.512 0-.944.104-1.296.312-.352.208-.528.504-.528.888 0 .192.056.36.168.504.128.144.296.264.504.36.208.08.456.16.744.24.288.064.592.144.912.24.512.144 1.016.304 1.512.48.512.16.976.368 1.392.624.432.256.768.592 1.008 1.008.256.416.4.944.432 1.584 0 .688-.2 1.32-.6 1.896-.4.56-.976 1.008-1.728 1.344-.736.32-1.616.48-2.64.48-1.184 0-2.2-.256-3.048-.768-.848-.512-1.424-1.336-1.728-2.472l2.376-.792Zm9.2-13.417h2.712v10.13h.888l4.224-4.848h3.576l-5.448 6 5.472 6h-3.576l-4.248-4.872h-.888v4.87h-2.712V5.52ZM33.86 0C23.763 6.072 16.99 17.232 16.99 30c0-12.768-6.775-23.928-16.872-30A33.969 33.969 0 0 0 16.99 4.464 33.97 33.97 0 0 0 33.861 0Z"/></svg>