<svg viewBox="0 0 133 30" xmlns:xlink="http://www.w3.org/1999/xlink" xmlns="http://www.w3.org/2000/svg" width="133" height="30" fill="none"><path fill="#fff" d="M15 2C7.821 2 2 7.82 2 15c0-3.597 2.903-6.5 6.5-6.5S15 11.403 15 15h13c0-7.18-5.821-13-13-13Zm0 26c7.179 0 13-5.821 13-13 0 3.596-2.903 6.5-6.5 6.5A6.491 6.491 0 0 1 15 15H2c0 7.179 5.821 13 13 13Zm36.917-16.568c-.592-1.056-1.32-1.816-2.184-2.28a5.748 5.748 0 0 0-2.76-.696 5.539 5.539 0 0 0-2.904.792c-.864.512-1.552 1.232-2.064 2.16-.496.912-.744 1.976-.744 3.192 0 1.216.248 2.288.744 3.216a5.7 5.7 0 0 0 2.016 2.16c.864.512 1.824.768 2.88.768.752 0 1.456-.128 2.112-.384a5.574 5.574 0 0 0 1.728-1.056 5.377 5.377 0 0 0 1.176-1.584v-1.68h-4.824v-2.328h7.68v4.176a8.054 8.054 0 0 1-1.728 2.688 8.202 8.202 0 0 1-2.712 1.896c-1.04.464-2.192.696-3.456.696a8.898 8.898 0 0 1-3.336-.624 8.502 8.502 0 0 1-2.712-1.752 8.61 8.61 0 0 1-1.824-2.712c-.432-1.056-.648-2.216-.648-3.48 0-1.248.216-2.392.648-3.432a8.539 8.539 0 0 1 1.824-2.736 8.304 8.304 0 0 1 2.712-1.776 8.899 8.899 0 0 1 3.336-.624 9.19 9.19 0 0 1 3.096.528c.992.336 1.88.84 2.664 1.512a6.631 6.631 0 0 1 1.8 2.472l-2.52.888ZM56.732 11h2.448l.216 1.488c.32-.4.696-.728 1.128-.984a4.028 4.028 0 0 1 1.392-.552 3.558 3.558 0 0 1 1.536.048v2.496a2.695 2.695 0 0 0-1.344-.096c-.464.064-.896.24-1.296.528-.4.272-.728.664-.984 1.176-.256.496-.384 1.112-.384 1.848V23h-2.712V11Zm13.492 12.168c-1.152 0-2.184-.248-3.096-.744a5.483 5.483 0 0 1-2.136-2.136c-.512-.928-.768-2.016-.768-3.264 0-1.264.264-2.36.792-3.288A5.396 5.396 0 0 1 67.2 11.6c.928-.512 1.96-.768 3.096-.768 1.152 0 2.184.256 3.096.768a5.556 5.556 0 0 1 2.208 2.136c.544.912.816 1.992.816 3.24 0 1.264-.28 2.36-.84 3.288a5.68 5.68 0 0 1-2.232 2.16c-.928.496-1.968.744-3.12.744Zm-.024-2.424c.56 0 1.088-.136 1.584-.408.512-.272.928-.68 1.248-1.224.32-.56.48-1.272.48-2.136 0-.832-.152-1.52-.456-2.064-.304-.56-.704-.976-1.2-1.248a3.291 3.291 0 0 0-1.608-.408c-.56 0-1.08.136-1.56.408-.464.272-.84.688-1.128 1.248-.288.544-.432 1.248-.432 2.112 0 .832.136 1.528.408 2.088.288.544.664.952 1.128 1.224.464.272.976.408 1.536.408ZM79.005 11V7.64h2.76V11h2.808v2.376h-2.807v5.328c0 .72.135 1.224.407 1.512.272.272.624.424 1.056.456.448.016.897-.008 1.344-.072v2.304a6.772 6.772 0 0 1-2.04.12 4.111 4.111 0 0 1-1.776-.528c-.528-.32-.952-.784-1.272-1.392-.32-.608-.48-1.408-.48-2.4v-5.328h-1.68V11h1.68Zm12.56 12.168c-1.2 0-2.256-.264-3.168-.792a5.613 5.613 0 0 1-2.112-2.208c-.496-.944-.744-2.032-.744-3.264 0-1.168.248-2.208.744-3.12a5.582 5.582 0 0 1 2.064-2.16c.88-.528 1.88-.792 3-.792 1.136 0 2.136.248 3 .744a5.172 5.172 0 0 1 2.016 2.088c.496.88.744 1.904.744 3.072 0 .192-.008.4-.024.624-.016.208-.04.432-.072.672H88.47c.08.56.256 1.048.528 1.464.288.4.648.712 1.08.936.432.224.928.336 1.488.336.672 0 1.272-.136 1.8-.408.544-.272.92-.632 1.128-1.08l2.376.792a5.43 5.43 0 0 1-2.136 2.28c-.944.544-2 .816-3.168.816Zm2.592-7.344a2.601 2.601 0 0 0-.408-1.344 2.696 2.696 0 0 0-1.008-.936c-.416-.24-.88-.36-1.392-.36-.448 0-.872.112-1.272.336-.4.224-.744.536-1.032.936-.272.384-.448.84-.528 1.368h5.64Zm6.517 3.312c.112.448.304.792.576 1.032.288.24.6.408.936.504.336.08.656.12.96.12.624 0 1.112-.12 1.464-.36.368-.256.552-.576.552-.96 0-.32-.12-.568-.36-.744-.24-.176-.552-.312-.936-.408a53.553 53.553 0 0 0-1.152-.336c-.432-.112-.896-.24-1.392-.384a6.127 6.127 0 0 1-1.368-.6 3.279 3.279 0 0 1-1.056-.984c-.272-.4-.408-.896-.408-1.488 0-.752.208-1.4.624-1.944.416-.56.984-.992 1.704-1.296.72-.304 1.528-.456 2.424-.456 1.072 0 2 .224 2.784.672.784.448 1.352 1.104 1.704 1.968l-2.376.768a1.567 1.567 0 0 0-.504-.576 1.873 1.873 0 0 0-.768-.336 3.302 3.302 0 0 0-.888-.12c-.512 0-.944.104-1.296.312-.352.208-.528.504-.528.888 0 .192.056.36.168.504.128.144.296.264.504.36.208.08.456.16.744.24.288.064.592.144.912.24.512.144 1.016.304 1.512.48.512.16.976.368 1.392.624.432.256.768.592 1.008 1.008.256.416.4.944.432 1.584 0 .688-.2 1.32-.6 1.896-.4.56-.976 1.008-1.728 1.344-.736.32-1.616.48-2.64.48-1.184 0-2.2-.256-3.048-.768-.848-.512-1.424-1.336-1.728-2.472l2.376-.792Zm9.2-13.416h2.712v10.128h.888L117.698 11h3.576l-5.448 6 5.472 6h-3.576l-4.248-4.872h-.888V23h-2.712V5.72Zm14.344 13.416c.112.448.304.792.576 1.032.288.24.6.408.936.504.336.08.656.12.96.12.624 0 1.112-.12 1.464-.36.368-.256.552-.576.552-.96 0-.32-.12-.568-.36-.744-.24-.176-.552-.312-.936-.408a53.553 53.553 0 0 0-1.152-.336c-.432-.112-.896-.24-1.392-.384a6.127 6.127 0 0 1-1.368-.6 3.279 3.279 0 0 1-1.056-.984c-.272-.4-.408-.896-.408-1.488 0-.752.208-1.4.624-1.944.416-.56.984-.992 1.704-1.296.72-.304 1.528-.456 2.424-.456 1.072 0 2 .224 2.784.672.784.448 1.352 1.104 1.704 1.968l-2.376.768a1.567 1.567 0 0 0-.504-.576 1.873 1.873 0 0 0-.768-.336 3.302 3.302 0 0 0-.888-.12c-.512 0-.944.104-1.296.312-.352.208-.528.504-.528.888 0 .192.056.36.168.504.128.144.296.264.504.36.208.08.456.16.744.24.288.064.592.144.912.24.512.144 1.016.304 1.512.48.512.16.976.368 1.392.624.432.256.768.592 1.008 1.008.256.416.4.944.432 1.584 0 .688-.2 1.32-.6 1.896-.4.56-.976 1.008-1.728 1.344-.736.32-1.616.48-2.64.48-1.184 0-2.2-.256-3.048-.768-.848-.512-1.424-1.336-1.728-2.472l2.376-.792Z"/></svg>